<svg xmlns="http://www.w3.org/2000/svg" width="1250" height="900" viewBox="0 0 1250 900">
<rect width="100%" height="100%" fill="#f6f8fa"/>
<text x="55" y="58" font-family="Arial, Helvetica, sans-serif" font-size="30" font-weight="700" fill="#1f2933" text-anchor="start">Observed metrics by historical QualiBact tier</text>
<text x="55" y="92" font-family="Arial, Helvetica, sans-serif" font-size="17" font-weight="400" fill="#52616f" text-anchor="start">Box plots summarize fresh GHRU-derived measurements</text>
<rect x="45" y="130" width="560" height="330" rx="14" fill="#ffffff" stroke="#d7dee7"/>
<text x="69" y="168" font-family="Arial, Helvetica, sans-serif" font-size="21" font-weight="700" fill="#1f2933" text-anchor="start">N50 (bp)</text>
<text x="150" y="236" font-family="Arial, Helvetica, sans-serif" font-size="18" font-weight="700" fill="#2f6f5e" text-anchor="end">PASS</text>
<line x1="214.1" y1="230" x2="550.0" y2="230" stroke="#64748b" stroke-width="2"/>
<rect x="311.4" y="213" width="90.1" height="34" fill="#2f6f5e" fill-opacity="0.32" stroke="#2f6f5e"/>
<line x1="354.7" y1="210" x2="354.7" y2="250" stroke="#2f6f5e" stroke-width="4"/>
<text x="150" y="308" font-family="Arial, Helvetica, sans-serif" font-size="18" font-weight="700" fill="#b7791f" text-anchor="end">WARN</text>
<line x1="280.0" y1="302" x2="399.7" y2="302" stroke="#64748b" stroke-width="2"/>
<rect x="332.7" y="285" width="57.2" height="34" fill="#b7791f" fill-opacity="0.32" stroke="#b7791f"/>
<line x1="367.2" y1="282" x2="367.2" y2="322" stroke="#b7791f" stroke-width="4"/>
<text x="150" y="380" font-family="Arial, Helvetica, sans-serif" font-size="18" font-weight="700" fill="#b42318" text-anchor="end">FAIL</text>
<line x1="190.0" y1="374" x2="316.4" y2="374" stroke="#64748b" stroke-width="2"/>
<rect x="194.8" y="357" width="67.7" height="34" fill="#b42318" fill-opacity="0.32" stroke="#b42318"/>
<line x1="213.5" y1="354" x2="213.5" y2="394" stroke="#b42318" stroke-width="4"/>
<text x="190" y="437" font-family="Arial, Helvetica, sans-serif" font-size="13" font-weight="400" fill="#64748b" text-anchor="start">1,571.00</text>
<text x="550" y="437" font-family="Arial, Helvetica, sans-serif" font-size="13" font-weight="400" fill="#64748b" text-anchor="end">357,673.00</text>
<rect x="645" y="130" width="560" height="330" rx="14" fill="#ffffff" stroke="#d7dee7"/>
<text x="669" y="168" font-family="Arial, Helvetica, sans-serif" font-size="21" font-weight="700" fill="#1f2933" text-anchor="start">Contigs</text>
<text x="750" y="236" font-family="Arial, Helvetica, sans-serif" font-size="18" font-weight="700" fill="#2f6f5e" text-anchor="end">PASS</text>
<line x1="804.0" y1="230" x2="926.4" y2="230" stroke="#64748b" stroke-width="2"/>
<rect x="815.1" y="213" width="46.9" height="34" fill="#2f6f5e" fill-opacity="0.32" stroke="#2f6f5e"/>
<line x1="822.1" y1="210" x2="822.1" y2="250" stroke="#2f6f5e" stroke-width="4"/>
<text x="750" y="308" font-family="Arial, Helvetica, sans-serif" font-size="18" font-weight="700" fill="#b7791f" text-anchor="end">WARN</text>
<line x1="813.4" y1="302" x2="900.2" y2="302" stroke="#64748b" stroke-width="2"/>
<rect x="815.1" y="285" width="2.9" height="34" fill="#b7791f" fill-opacity="0.32" stroke="#b7791f"/>
<line x1="816.0" y1="282" x2="816.0" y2="322" stroke="#b7791f" stroke-width="4"/>
<text x="750" y="380" font-family="Arial, Helvetica, sans-serif" font-size="18" font-weight="700" fill="#b42318" text-anchor="end">FAIL</text>
<line x1="790.0" y1="374" x2="1150.0" y2="374" stroke="#64748b" stroke-width="2"/>
<rect x="851.1" y="357" width="114.0" height="34" fill="#b42318" fill-opacity="0.32" stroke="#b42318"/>
<line x1="903.9" y1="354" x2="903.9" y2="394" stroke="#b42318" stroke-width="4"/>
<text x="790" y="437" font-family="Arial, Helvetica, sans-serif" font-size="13" font-weight="400" fill="#64748b" text-anchor="start">1.00</text>
<text x="1150" y="437" font-family="Arial, Helvetica, sans-serif" font-size="13" font-weight="400" fill="#64748b" text-anchor="end">1,033.00</text>
<rect x="45" y="520" width="560" height="330" rx="14" fill="#ffffff" stroke="#d7dee7"/>
<text x="69" y="558" font-family="Arial, Helvetica, sans-serif" font-size="21" font-weight="700" fill="#1f2933" text-anchor="start">Genome size (bp)</text>
<text x="150" y="626" font-family="Arial, Helvetica, sans-serif" font-size="18" font-weight="700" fill="#2f6f5e" text-anchor="end">PASS</text>
<line x1="444.8" y1="620" x2="508.1" y2="620" stroke="#64748b" stroke-width="2"/>
<rect x="471.7" y="603" width="22.4" height="34" fill="#2f6f5e" fill-opacity="0.32" stroke="#2f6f5e"/>
<line x1="481.3" y1="600" x2="481.3" y2="640" stroke="#2f6f5e" stroke-width="4"/>
<text x="150" y="698" font-family="Arial, Helvetica, sans-serif" font-size="18" font-weight="700" fill="#b7791f" text-anchor="end">WARN</text>
<line x1="470.0" y1="692" x2="509.2" y2="692" stroke="#64748b" stroke-width="2"/>
<rect x="470.5" y="675" width="2.0" height="34" fill="#b7791f" fill-opacity="0.32" stroke="#b7791f"/>
<line x1="470.5" y1="672" x2="470.5" y2="712" stroke="#b7791f" stroke-width="4"/>
<text x="150" y="770" font-family="Arial, Helvetica, sans-serif" font-size="18" font-weight="700" fill="#b42318" text-anchor="end">FAIL</text>
<line x1="190.0" y1="764" x2="550.0" y2="764" stroke="#64748b" stroke-width="2"/>
<rect x="263.0" y="747" width="248.3" height="34" fill="#b42318" fill-opacity="0.32" stroke="#b42318"/>
<line x1="476.3" y1="744" x2="476.3" y2="784" stroke="#b42318" stroke-width="4"/>
<text x="190" y="827" font-family="Arial, Helvetica, sans-serif" font-size="13" font-weight="400" fill="#64748b" text-anchor="start">5,377.00</text>
<text x="550" y="827" font-family="Arial, Helvetica, sans-serif" font-size="13" font-weight="400" fill="#64748b" text-anchor="end">6,288,281.00</text>
<rect x="645" y="520" width="560" height="330" rx="14" fill="#ffffff" stroke="#d7dee7"/>
<text x="669" y="558" font-family="Arial, Helvetica, sans-serif" font-size="21" font-weight="700" fill="#1f2933" text-anchor="start">Contamination (%)</text>
<text x="750" y="626" font-family="Arial, Helvetica, sans-serif" font-size="18" font-weight="700" fill="#2f6f5e" text-anchor="end">PASS</text>
<line x1="790.0" y1="620" x2="839.2" y2="620" stroke="#64748b" stroke-width="2"/>
<rect x="795.6" y="603" width="11.9" height="34" fill="#2f6f5e" fill-opacity="0.32" stroke="#2f6f5e"/>
<line x1="799.7" y1="600" x2="799.7" y2="640" stroke="#2f6f5e" stroke-width="4"/>
<text x="750" y="698" font-family="Arial, Helvetica, sans-serif" font-size="18" font-weight="700" fill="#b7791f" text-anchor="end">WARN</text>
<line x1="793.7" y1="692" x2="808.1" y2="692" stroke="#64748b" stroke-width="2"/>
<rect x="793.7" y="675" width="2.0" height="34" fill="#b7791f" fill-opacity="0.32" stroke="#b7791f"/>
<line x1="793.7" y1="672" x2="793.7" y2="712" stroke="#b7791f" stroke-width="4"/>
<text x="750" y="770" font-family="Arial, Helvetica, sans-serif" font-size="18" font-weight="700" fill="#b42318" text-anchor="end">FAIL</text>
<line x1="790.0" y1="764" x2="1150.0" y2="764" stroke="#64748b" stroke-width="2"/>
<rect x="791.2" y="747" width="44.3" height="34" fill="#b42318" fill-opacity="0.32" stroke="#b42318"/>
<line x1="807.4" y1="744" x2="807.4" y2="784" stroke="#b42318" stroke-width="4"/>
<text x="790" y="827" font-family="Arial, Helvetica, sans-serif" font-size="13" font-weight="400" fill="#64748b" text-anchor="start">0.00</text>
<text x="1150" y="827" font-family="Arial, Helvetica, sans-serif" font-size="13" font-weight="400" fill="#64748b" text-anchor="end">7.76</text>
</svg>
